<svg xmlns="http://www.w3.org/2000/svg" viewBox="0 0 100 100" fill="%23F27405">
  <path d="M50,10 C27.9,10 10,27.9 10,50 C10,72.1 27.9,90 50,90 C72.1,90 90,72.1 90,50 C90,27.9 72.1,10 50,10 Z M50,85 C30.7,85 15,69.3 15,50 C15,30.7 30.7,15 50,15 C69.3,15 85,30.7 85,50 C85,69.3 69.3,85 50,85 Z" />
  <path d="M50,25 C36.2,25 25,36.2 25,50 C25,53.3 27.7,56 31,56 C34.3,56 37,53.3 37,50 C37,42.8 42.8,37 50,37 C57.2,37 63,42.8 63,50 C63,53.3 65.7,56 69,56 C72.3,56 75,53.3 75,50 C75,36.2 63.8,25 50,25 Z" />
</svg>
